<svg xmlns="http://www.w3.org/2000/svg" width="200" height="44" viewBox="0 0 200 44" fill="none"><g clip-path="url(#clip0_122_9)"><path d="M23.1777 16.4821L23.3489 16.1661C23.7045 15.5076 24.1523 14.6911 24.679 14.2697C25.1268 13.9141 25.6667 13.7166 26.2067 13.6771C26.7598 13.6376 27.326 13.7561 27.8396 14.0458C28.3532 14.3355 28.7615 14.7438 29.0117 15.231C29.2619 15.7183 29.3804 16.2714 29.3146 16.8377C29.3014 17.0221 29.2619 17.1933 29.1961 17.3645C29.1565 17.4698 29.117 17.5752 29.0644 17.6805L24.679 25.6083C24.2576 26.3853 23.7572 27.0965 23.2041 27.7418C22.6378 28.4134 22.0189 29.006 21.3472 29.5459C20.6624 30.0859 19.9381 30.5599 19.1612 30.955C18.3842 31.3501 17.5677 31.6793 16.738 31.9164C15.4606 32.2851 14.1569 32.4431 12.8531 32.43C11.523 32.4036 10.2061 32.1798 8.94189 31.7715C8.17808 31.5213 7.44061 31.2184 6.72947 30.8365C6.03151 30.4283 5.37305 29.9673 4.76727 29.4537C3.75324 28.5977 2.85774 27.5969 2.13344 26.4907C1.4223 25.4108 0.869196 24.2124 0.50046 22.935C0.263415 22.1053 0.105385 21.2362 0.02637 20.367C-0.0526449 19.511 -0.0394758 18.6287 0.0527083 17.7727C0.144892 16.9299 0.329261 16.0739 0.592644 15.2442C0.856027 14.4409 1.19843 13.6376 1.61984 12.8606L6.00517 4.93277C6.07101 4.84058 6.13686 4.7484 6.21587 4.65622C6.3344 4.51136 6.46609 4.39283 6.61095 4.27431C7.0587 3.91874 7.58547 3.72121 8.13857 3.6817C8.69168 3.64219 9.25795 3.76071 9.77155 4.05043C10.2851 4.34016 10.6934 4.7484 10.9436 5.23566C11.1938 5.72292 11.3123 6.27602 11.2465 6.8423C11.1675 7.51392 10.7197 8.33041 10.351 8.9757L10.1798 9.29176L6.62412 15.7183C6.38707 16.1529 6.18954 16.6006 6.04468 17.0616C5.89981 17.5357 5.79446 18.0097 5.74178 18.4838C5.68911 18.9711 5.67594 19.4583 5.72862 19.9456C5.76812 20.4329 5.86031 20.9201 5.992 21.3942C6.20271 22.1185 6.51876 22.7901 6.91384 23.3959C7.32208 24.028 7.82251 24.5943 8.40195 25.0684C8.74435 25.3581 9.11309 25.6215 9.50816 25.8454C9.90324 26.0561 10.3247 26.2273 10.7592 26.3722C11.4704 26.596 12.2078 26.7277 12.9585 26.7409C13.6828 26.7409 14.4203 26.6619 15.1446 26.4512C15.6187 26.3195 16.0664 26.1351 16.5142 25.9112C16.9487 25.6874 17.357 25.424 17.7389 25.1211C18.1208 24.8182 18.4632 24.4758 18.7924 24.1071C19.1085 23.7383 19.385 23.3433 19.6221 22.9087L23.1646 16.4821H23.1777Z" fill="#002C72"></path><path d="M16.5141 19.287L16.3429 19.603C15.9873 20.2615 15.5396 21.078 15.0128 21.4994C14.5651 21.855 14.0251 22.0525 13.4852 22.092C12.9321 22.1315 12.3658 22.013 11.8522 21.7233C11.3386 21.4467 10.9304 21.0253 10.6802 20.5381C10.4299 20.0508 10.3114 19.4977 10.3773 18.9314C10.3904 18.7471 10.4299 18.5759 10.4958 18.4047C10.5353 18.2993 10.5748 18.1939 10.6275 18.0886L15.0128 10.1608C15.4342 9.38378 15.9346 8.67265 16.4878 8.02736C17.054 7.35573 17.673 6.76312 18.3446 6.22318C19.0294 5.68325 19.7537 5.20916 20.5307 4.81408C21.3077 4.41901 22.1242 4.08978 22.9538 3.85273C24.2312 3.484 25.535 3.32597 26.8387 3.33914C28.1688 3.36547 29.4857 3.58935 30.75 3.99759C31.5138 4.24781 32.2512 4.5507 32.9624 4.9326C33.6603 5.34085 34.3188 5.80177 34.9246 6.31537C35.9386 7.17136 36.8209 8.17222 37.5584 9.27843C38.2695 10.3583 38.8226 11.5567 39.1914 12.8341C39.4284 13.6638 39.5865 14.5329 39.6655 15.4021C39.7445 16.2712 39.7313 17.1404 39.626 17.9964C39.5338 18.8392 39.3494 19.6952 39.086 20.5249C38.8226 21.3282 38.4934 22.1315 38.0588 22.9085L33.6735 30.8363C33.6077 30.9285 33.5418 31.0207 33.4628 31.1129C33.3443 31.2578 33.2126 31.3763 33.0677 31.4948C32.62 31.8504 32.0932 32.0479 31.5401 32.0874C30.987 32.1269 30.4207 32.0084 29.9071 31.7187C29.3935 31.4421 28.9985 31.0207 28.7351 30.5334C28.4849 30.0462 28.3663 29.4931 28.4322 28.9268C28.5112 28.242 28.9589 27.4387 29.3277 26.7934L29.4989 26.4773L33.0546 20.0508C33.2916 19.6162 33.4891 19.1685 33.634 18.7075C33.7789 18.2335 33.8842 17.7594 33.9369 17.2853C33.9896 16.798 33.9896 16.3108 33.9501 15.8235C33.9105 15.3362 33.8184 14.849 33.6867 14.3749C33.476 13.6506 33.1731 12.979 32.7648 12.3732C32.3566 11.7411 31.8562 11.188 31.2767 10.7007C30.9343 10.411 30.5656 10.1476 30.1705 9.92372C29.7754 9.71301 29.354 9.54181 28.9194 9.39695C28.2083 9.17307 27.4708 9.04138 26.7202 9.02821C25.9959 9.01504 25.2584 9.10723 24.5341 9.31793C24.06 9.44963 23.6123 9.63399 23.1645 9.85787C22.7299 10.0817 22.3217 10.3451 21.9266 10.648C21.5447 10.9509 21.2023 11.2933 20.8863 11.662C20.5834 12.0308 20.2936 12.4259 20.0566 12.8604L16.5009 19.287H16.5141Z" fill="#066FB5"></path><path d="M51.2412 3.629V32.588H46.9217V0.152344L51.2412 3.629Z" fill="#002C72"></path><path d="M61.2102 17.3644V32.5879H56.8907V13.8877L61.2102 17.3644Z" fill="#002C72"></path><path d="M64.8581 13.8876H69.2039V15.6128C70.7184 14.1115 72.4172 13.3608 74.3135 13.3608C76.4865 13.3608 78.1853 14.0456 79.3968 15.4152C80.4504 16.5741 80.9771 18.4836 80.9771 21.1175V32.5878H76.6313V22.1447C76.6313 20.301 76.3811 19.0236 75.8675 18.3256C75.3671 17.6145 74.4584 17.2457 73.1415 17.2457C71.7061 17.2457 70.692 17.7198 70.0863 18.668C69.4936 19.603 69.2039 21.236 69.2039 23.5669V32.5878H64.8581V13.8876Z" fill="#002C72"></path><path d="M88.1543 3.629V19.9324L94.2385 13.8878H100.033L91.9075 21.7366L100.626 32.588H95.0154L88.8259 24.6997L88.1411 25.3844V32.588H83.8217V0.152344L88.1411 3.629H88.1543Z" fill="#002C72"></path><path d="M113.531 16.535L109.962 18.4314C109.396 17.2725 108.698 16.7062 107.869 16.7062C107.474 16.7062 107.131 16.8379 106.855 17.1013C106.578 17.3646 106.433 17.6939 106.433 18.1153C106.433 18.8264 107.263 19.5376 108.935 20.2487C111.227 21.2364 112.768 22.1451 113.558 22.9747C114.348 23.8044 114.743 24.9237 114.743 26.3328C114.743 28.137 114.071 29.6515 112.741 30.863C111.451 32.0219 109.883 32.5882 108.053 32.5882C104.919 32.5882 102.693 31.0606 101.389 27.9922L105.077 26.2802C105.59 27.1757 105.985 27.7419 106.249 27.9922C106.776 28.4794 107.394 28.7165 108.132 28.7165C109.594 28.7165 110.318 28.0448 110.318 26.7148C110.318 25.9509 109.752 25.2266 108.632 24.5682C108.198 24.3443 107.763 24.1336 107.329 23.9361C106.894 23.7254 106.446 23.5146 105.999 23.3039C104.747 22.685 103.865 22.0792 103.352 21.4603C102.693 20.6833 102.377 19.6693 102.377 18.4445C102.377 16.8247 102.93 15.4683 104.05 14.4148C105.182 13.3481 106.565 12.8213 108.198 12.8213C110.595 12.8213 112.372 14.0592 113.531 16.5218V16.535Z" fill="#066FB5"></path><path d="M132.39 14.1514C132.39 14.1514 129.808 17.47 129.743 17.4173C128.979 16.9564 128.07 16.7325 127.03 16.7325C125.41 16.7325 124.053 17.2988 122.974 18.4445C121.894 19.5903 121.367 21.0125 121.367 22.7245C121.367 24.4365 121.881 25.9246 122.921 27.044C123.974 28.1765 125.305 28.7296 126.938 28.7296C127.978 28.7296 128.887 28.5058 129.69 28.058C129.69 28.0712 132.403 31.2318 132.403 31.2318C130.651 32.1405 128.9 32.6014 127.135 32.6014C124.238 32.6014 121.828 31.6664 119.879 29.7963C117.93 27.9132 116.955 25.5822 116.955 22.7904C116.955 19.9985 117.943 17.6412 119.918 15.7185C121.894 13.7958 124.304 12.8345 127.175 12.8345C129.018 12.8345 130.757 13.2822 132.403 14.1646L132.39 14.1514Z" fill="#066FB5"></path><path d="M134.602 13.8876H138.921V15.5601C139.712 14.7304 140.423 14.1642 141.029 13.8481C141.661 13.5321 142.398 13.374 143.254 13.374C144.4 13.374 145.585 13.7428 146.823 14.4934L144.848 18.4441C144.031 17.8515 143.228 17.5618 142.451 17.5618C140.093 17.5618 138.921 19.3397 138.921 22.8953V32.5878H134.602V13.8876Z" fill="#066FB5"></path><path d="M152.328 17.3644V32.5879H148.008V13.8877L152.328 17.3644Z" fill="#066FB5"></path><path d="M159.373 42.939H155.054V14.059H159.373V16.1002C161.072 14.4014 163.008 13.5454 165.168 13.5454C167.736 13.5454 169.856 14.4936 171.528 16.3899C173.214 18.2731 174.057 20.6436 174.057 23.5145C174.057 26.3853 173.214 28.6504 171.541 30.5205C169.882 32.3773 167.775 33.2991 165.247 33.2991C163.061 33.2991 161.098 32.4168 159.373 30.6653V42.939ZM169.645 23.5276C169.645 21.7366 169.158 20.2749 168.183 19.1555C167.196 18.0098 165.958 17.4435 164.456 17.4435C162.863 17.4435 161.586 17.9966 160.598 19.0896C159.61 20.1958 159.123 21.6313 159.123 23.4354C159.123 25.2396 159.61 26.6356 160.598 27.7813C161.572 28.9006 162.85 29.4538 164.443 29.4538C165.945 29.4538 167.182 28.8875 168.144 27.7681C169.145 26.6356 169.645 25.2396 169.645 23.5408V23.5276Z" fill="#066FB5"></path><path d="M182.064 17.9173V32.5877H177.744V17.9173H175.9V13.8875H177.744V7.02637L182.064 10.503V13.8743H185.422V17.9041H182.064V17.9173Z" fill="#066FB5"></path><path d="M198.788 16.535L195.22 18.4314C194.653 17.2725 193.955 16.7062 193.126 16.7062C192.731 16.7062 192.388 16.8379 192.112 17.1013C191.835 17.3646 191.69 17.6939 191.69 18.1153C191.69 18.8264 192.52 19.5376 194.192 20.2487C196.484 21.2364 198.025 22.1451 198.815 22.9747C199.605 23.8044 200 24.9237 200 26.3328C200 28.137 199.328 29.6515 197.998 30.863C196.708 32.0219 195.141 32.5882 193.31 32.5882C190.176 32.5882 187.95 31.0606 186.646 27.9922L190.334 26.2802C190.847 27.1757 191.242 27.7419 191.506 27.9922C192.033 28.4794 192.652 28.7165 193.389 28.7165C194.851 28.7165 195.575 28.0448 195.575 26.7148C195.575 25.9509 195.009 25.2266 193.889 24.5682C193.455 24.3443 193.02 24.1336 192.586 23.9361C192.151 23.7254 191.703 23.5146 191.256 23.3039C190.005 22.685 189.122 22.0792 188.609 21.4603C187.95 20.6833 187.634 19.6693 187.634 18.4445C187.634 16.8247 188.187 15.4683 189.307 14.4148C190.439 13.3481 191.822 12.8213 193.455 12.8213C195.852 12.8213 197.63 14.0592 198.788 16.5218V16.535Z" fill="#066FB5"></path><path d="M56.8513 9.00182C56.8513 8.25118 57.1278 7.59272 57.6809 7.03962C58.234 6.48651 58.8925 6.20996 59.6563 6.20996C60.4201 6.20996 61.1049 6.48651 61.658 7.03962C62.2111 7.57955 62.4877 8.23801 62.4877 9.01499C62.4877 9.79197 62.2111 10.4636 61.658 11.0167C61.1181 11.5698 60.4596 11.8464 59.6826 11.8464C58.9056 11.8464 58.234 11.5698 57.6809 11.0167C57.1278 10.4636 56.8513 9.79197 56.8513 9.00182Z" fill="#066FB5"></path><path d="M147.956 9.00182C147.956 8.25118 148.232 7.59272 148.785 7.03962C149.338 6.48651 149.997 6.20996 150.761 6.20996C151.524 6.20996 152.209 6.48651 152.762 7.03962C153.315 7.57955 153.592 8.23801 153.592 9.01499C153.592 9.79197 153.315 10.4636 152.762 11.0167C152.222 11.5698 151.564 11.8464 150.787 11.8464C150.01 11.8464 149.338 11.5698 148.785 11.0167C148.232 10.4636 147.956 9.79197 147.956 9.00182Z" fill="#002C72"></path><path d="M2.05438 36.3545H3.21327L4.66188 40.8583L6.14999 36.3413H7.05866L8.54678 40.8583L9.99538 36.3545H11.1148L8.99453 42.465H8.07269L6.58457 38.106L5.09646 42.465H4.17462L2.05438 36.3545Z" fill="#002C72"></path><path d="M11.2728 40.1604C11.2728 38.8304 12.1947 37.7505 13.5116 37.7505C14.9734 37.7505 15.7108 38.8962 15.7108 40.2131C15.7108 40.3053 15.7108 40.4107 15.6977 40.5028H12.3264C12.4449 41.2535 12.9716 41.6617 13.6433 41.6617C14.1569 41.6617 14.5256 41.4774 14.8812 41.1086L15.5001 41.6617C15.0655 42.1885 14.4729 42.5177 13.6301 42.5177C12.3 42.5177 11.2728 41.5564 11.2728 40.1341V40.1604ZM14.6705 39.818C14.6046 39.1464 14.1964 38.6065 13.5116 38.6065C12.8663 38.6065 12.4185 39.1069 12.3264 39.818H14.6836H14.6705Z" fill="#002C72"></path><path d="M16.7775 36.1436H17.9101V37.1444H16.7775V36.1436ZM16.8302 37.8424H17.8837V42.4252H16.8302V37.8424Z" fill="#002C72"></path><path d="M19.2402 43.2815L19.6352 42.4914C20.1225 42.7943 20.6361 42.9786 21.2682 42.9786C22.2032 42.9786 22.7168 42.4914 22.7168 41.5695V41.214C22.3349 41.7144 21.8608 42.0568 21.097 42.0568C20.0172 42.0568 19.0163 41.2535 19.0163 39.9102C19.0163 38.5406 20.0303 37.7373 21.097 37.7373C21.874 37.7373 22.3481 38.0929 22.7037 38.5143V37.8295H23.7572V41.4773C23.7572 42.2543 23.5597 42.8206 23.1778 43.2025C22.7563 43.6239 22.1242 43.8215 21.2946 43.8215C20.5439 43.8215 19.8328 43.6239 19.2533 43.2684L19.2402 43.2815ZM22.7168 39.9234C22.7168 39.1464 22.0979 38.6328 21.3736 38.6328C20.6493 38.6328 20.0698 39.1332 20.0698 39.897C20.0698 40.674 20.6493 41.1876 21.3736 41.1876C22.0979 41.1876 22.7168 40.6609 22.7168 39.9234Z" fill="#002C72"></path><path d="M25.0609 36.0908H26.1144V38.5534C26.4042 38.1189 26.8387 37.7501 27.5499 37.7501C28.5771 37.7501 29.1829 38.4481 29.1829 39.5148V42.4252H28.1293V39.8177C28.1293 39.1065 27.7738 38.6983 27.1548 38.6983C26.5359 38.6983 26.1276 39.1197 26.1276 39.8308V42.412H25.0741V36.0776L25.0609 36.0908Z" fill="#002C72"></path><path d="M30.6578 41.161V38.751H30.0784V37.8424H30.6578V36.5781H31.7113V37.8424H32.9492V38.751H31.7113V41.003C31.7113 41.4112 31.9221 41.5824 32.2776 41.5824C32.5147 41.5824 32.7254 41.5297 32.9229 41.4244V42.2804C32.6595 42.4252 32.3698 42.5174 31.9747 42.5174C31.1977 42.5174 30.6578 42.175 30.6578 41.1742V41.161Z" fill="#002C72"></path><path d="M36.7288 36.3545H37.7955V41.451H40.9824V42.4255H36.7288V36.3545Z" fill="#002C72"></path><path d="M41.6409 40.1604C41.6409 38.8304 42.6812 37.7505 44.0903 37.7505C45.4994 37.7505 46.5266 38.8172 46.5266 40.1341C46.5266 41.451 45.4863 42.5309 44.0772 42.5309C42.6681 42.5309 41.654 41.4642 41.654 40.1604H41.6409ZM45.4731 40.1604C45.4731 39.3308 44.8936 38.6723 44.064 38.6723C43.2343 38.6723 42.6812 39.3308 42.6812 40.1341C42.6812 40.9506 43.2607 41.6222 44.0772 41.6222C44.8937 41.6222 45.4599 40.9506 45.4599 40.1604H45.4731Z" fill="#002C72"></path><path d="M47.2114 41.8325L47.6855 41.1213C48.1859 41.4901 48.7127 41.6876 49.1868 41.6876C49.6609 41.6876 49.8979 41.5032 49.8979 41.1872C49.8979 40.8184 49.4107 40.6868 48.8707 40.5287C48.1991 40.3444 47.4353 40.0546 47.4353 39.1855C47.4353 38.3031 48.1596 37.7764 49.0683 37.7764C49.6345 37.7764 50.2667 37.9739 50.7539 38.3031L50.3325 39.0538C49.8848 38.7904 49.4238 38.6192 49.0419 38.6192C48.6337 38.6192 48.3966 38.8036 48.3966 39.0801C48.3966 39.4225 48.8971 39.5674 49.4238 39.7386C50.0955 39.9493 50.8461 40.2522 50.8461 41.0687C50.8461 42.0432 50.0955 42.5304 49.1473 42.5304C48.502 42.5304 47.7777 42.2934 47.1982 41.8456L47.2114 41.8325Z" fill="#002C72"></path><path d="M51.4651 41.8325L51.9392 41.1213C52.4396 41.4901 52.9664 41.6876 53.4405 41.6876C53.9145 41.6876 54.1516 41.5032 54.1516 41.1872C54.1516 40.8184 53.6643 40.6868 53.1244 40.5287C52.4528 40.3444 51.6889 40.0546 51.6889 39.1855C51.6889 38.3031 52.4133 37.7764 53.3219 37.7764C53.8882 37.7764 54.5203 37.9739 55.0076 38.3031L54.5862 39.0538C54.1384 38.7904 53.6775 38.6192 53.2956 38.6192C52.8873 38.6192 52.6503 38.8036 52.6503 39.0801C52.6503 39.4225 53.1507 39.5674 53.6775 39.7386C54.3491 39.9493 55.0998 40.2522 55.0998 41.0687C55.0998 42.0432 54.3491 42.5304 53.4009 42.5304C52.7557 42.5304 52.0313 42.2934 51.4519 41.8456L51.4651 41.8325Z" fill="#002C72"></path><path d="M56.1138 41.2402H57.2727V42.4255H56.1138V41.2402Z" fill="#002C72"></path><path d="M60.7625 36.3545H61.9214L63.37 40.8583L64.8581 36.3413H65.7668L67.2549 40.8583L68.7035 36.3545H69.8229L67.7027 42.465H66.7808L65.2927 38.106L63.8046 42.465H62.8827L60.7625 36.3545Z" fill="#002C72"></path><path d="M69.9809 40.1604C69.9809 38.8304 70.9027 37.7505 72.2197 37.7505C73.6814 37.7505 74.4189 38.8962 74.4189 40.2131C74.4189 40.3053 74.4189 40.4107 74.4057 40.5028H71.0344C71.153 41.2535 71.6797 41.6617 72.3513 41.6617C72.8649 41.6617 73.2337 41.4774 73.5892 41.1086L74.2082 41.6617C73.7736 42.1885 73.181 42.5177 72.3382 42.5177C71.0081 42.5177 69.9809 41.5564 69.9809 40.1341V40.1604ZM73.3785 39.818C73.3127 39.1464 72.9045 38.6065 72.2197 38.6065C71.5744 38.6065 71.1266 39.1069 71.0344 39.818H73.3917H73.3785Z" fill="#002C72"></path><path d="M75.5383 36.0908H76.5918V42.4252H75.5383V36.0908Z" fill="#002C72"></path><path d="M78.0141 36.0908H79.0676V42.4252H78.0141V36.0908Z" fill="#002C72"></path><path d="M80.4372 37.8427H81.4907V38.5538C81.7804 38.1192 82.215 37.7505 82.9262 37.7505C83.9534 37.7505 84.5591 38.4485 84.5591 39.5152V42.4255H83.5056V39.818C83.5056 39.1069 83.15 38.6987 82.5311 38.6987C81.9121 38.6987 81.5039 39.1201 81.5039 39.8312V42.4124H80.4504V37.8295L80.4372 37.8427Z" fill="#002C72"></path><path d="M85.5732 40.1604C85.5732 38.8304 86.495 37.7505 87.8119 37.7505C89.2737 37.7505 90.0112 38.8962 90.0112 40.2131C90.0112 40.3053 90.0112 40.4107 89.998 40.5028H86.6267C86.7452 41.2535 87.272 41.6617 87.9436 41.6617C88.4572 41.6617 88.826 41.4774 89.1815 41.1086L89.8005 41.6617C89.3659 42.1885 88.7733 42.5177 87.9305 42.5177C86.6004 42.5177 85.5732 41.5564 85.5732 40.1341V40.1604ZM88.9577 39.818C88.8918 39.1464 88.4836 38.6065 87.7988 38.6065C87.1535 38.6065 86.7057 39.1069 86.6135 39.818H88.9708H88.9577Z" fill="#002C72"></path><path d="M90.6828 41.8325L91.1569 41.1213C91.6574 41.4901 92.1841 41.6876 92.6582 41.6876C93.1323 41.6876 93.3694 41.5032 93.3694 41.1872C93.3694 40.8184 92.8821 40.6868 92.3422 40.5287C91.6705 40.3444 90.9067 40.0546 90.9067 39.1855C90.9067 38.3031 91.631 37.7764 92.5397 37.7764C93.106 37.7764 93.7381 37.9739 94.2254 38.3031L93.8039 39.0538C93.3562 38.7904 92.8953 38.6192 92.5134 38.6192C92.1051 38.6192 91.8681 38.8036 91.8681 39.0801C91.8681 39.4225 92.3685 39.5674 92.8953 39.7386C93.5669 39.9493 94.3175 40.2522 94.3175 41.0687C94.3175 42.0432 93.5669 42.5304 92.6187 42.5304C91.9734 42.5304 91.2491 42.2934 90.6697 41.8456L90.6828 41.8325Z" fill="#002C72"></path><path d="M94.9365 41.8325L95.4106 41.1213C95.911 41.4901 96.4378 41.6876 96.9119 41.6876C97.386 41.6876 97.623 41.5032 97.623 41.1872C97.623 40.8184 97.1358 40.6868 96.5958 40.5287C95.9242 40.3444 95.1604 40.0546 95.1604 39.1855C95.1604 38.3031 95.8847 37.7764 96.7934 37.7764C97.3596 37.7764 97.9917 37.9739 98.479 38.3031L98.0576 39.0538C97.6098 38.7904 97.1489 38.6192 96.767 38.6192C96.3588 38.6192 96.1217 38.8036 96.1217 39.0801C96.1217 39.4225 96.6222 39.5674 97.1489 39.7386C97.8205 39.9493 98.5712 40.2522 98.5712 41.0687C98.5712 42.0432 97.8205 42.5304 96.8724 42.5304C96.2271 42.5304 95.5028 42.2934 94.9233 41.8456L94.9365 41.8325Z" fill="#002C72"></path><path d="M99.5851 41.2402H100.744V42.4255H99.5851V41.2402Z" fill="#002C72"></path><path d="M104.708 36.3545H105.775V41.451H108.962V42.4255H104.708V36.3545Z" fill="#002C72"></path><path d="M109.62 40.1604C109.62 38.8304 110.66 37.7505 112.07 37.7505C113.479 37.7505 114.506 38.8172 114.506 40.1341C114.506 41.451 113.465 42.5309 112.056 42.5309C110.647 42.5309 109.633 41.4642 109.633 40.1604H109.62ZM113.452 40.1604C113.452 39.3308 112.873 38.6723 112.043 38.6723C111.214 38.6723 110.66 39.3308 110.66 40.1341C110.66 40.9506 111.24 41.6222 112.056 41.6222C112.873 41.6222 113.439 40.9506 113.439 40.1604H113.452Z" fill="#002C72"></path><path d="M115.573 37.8427H116.626V38.5538C116.916 38.1192 117.35 37.7505 118.062 37.7505C119.089 37.7505 119.694 38.4485 119.694 39.5152V42.4255H118.641V39.818C118.641 39.1069 118.285 38.6987 117.666 38.6987C117.047 38.6987 116.639 39.1201 116.639 39.8312V42.4124H115.586V37.8295L115.573 37.8427Z" fill="#002C72"></path><path d="M120.946 43.2815L121.341 42.4914C121.828 42.7943 122.341 42.9786 122.974 42.9786C123.909 42.9786 124.422 42.4914 124.422 41.5695V41.214C124.04 41.7144 123.566 42.0568 122.802 42.0568C121.723 42.0568 120.722 41.2535 120.722 39.9102C120.722 38.5406 121.736 37.7373 122.802 37.7373C123.579 37.7373 124.053 38.0929 124.409 38.5143V37.8295H125.463V41.4773C125.463 42.2543 125.265 42.8206 124.883 43.2025C124.462 43.6239 123.83 43.8215 123 43.8215C122.249 43.8215 121.538 43.6239 120.959 43.2684L120.946 43.2815ZM124.422 39.9234C124.422 39.1464 123.803 38.6328 123.079 38.6328C122.355 38.6328 121.775 39.1332 121.775 39.897C121.775 40.674 122.355 41.1876 123.079 41.1876C123.803 41.1876 124.422 40.6609 124.422 39.9234Z" fill="#002C72"></path><path d="M126.516 40.1604C126.516 38.8304 127.438 37.7505 128.755 37.7505C130.217 37.7505 130.954 38.8962 130.954 40.2131C130.954 40.3053 130.954 40.4107 130.941 40.5028H127.57C127.688 41.2535 128.215 41.6617 128.887 41.6617C129.4 41.6617 129.769 41.4774 130.124 41.1086L130.743 41.6617C130.309 42.1885 129.716 42.5177 128.873 42.5177C127.543 42.5177 126.516 41.5564 126.516 40.1341V40.1604ZM129.914 39.818C129.848 39.1464 129.44 38.6065 128.755 38.6065C128.11 38.6065 127.662 39.1069 127.57 39.818H129.927H129.914Z" fill="#002C72"></path><path d="M131.362 37.8423H132.495L133.733 41.2136L134.971 37.8423H136.077L134.207 42.4647H133.259L131.376 37.8423H131.362Z" fill="#002C72"></path><path d="M136.972 36.1436H138.105V37.1444H136.972V36.1436ZM137.012 37.8424H138.065V42.4252H137.012V37.8424Z" fill="#002C72"></path><path d="M139.659 41.161V38.751H139.079V37.8424H139.659V36.5781H140.712V37.8424H141.95V38.751H140.712V41.003C140.712 41.4112 140.923 41.5824 141.279 41.5824C141.516 41.5824 141.726 41.5297 141.924 41.4244V42.2804C141.661 42.4252 141.371 42.5174 140.976 42.5174C140.199 42.5174 139.659 42.175 139.659 41.1742V41.161Z" fill="#002C72"></path><path d="M142.846 43.5709L143.201 42.7939C143.386 42.8993 143.597 42.9651 143.82 42.9651C144.11 42.9651 144.294 42.8334 144.466 42.4383L142.556 37.8555H143.676L144.979 41.2531L146.164 37.8555H147.258L145.44 42.57C145.071 43.505 144.663 43.8606 143.926 43.8606C143.478 43.8606 143.162 43.7553 142.846 43.5841V43.5709Z" fill="#002C72"></path><path d="M147.363 41.2402H148.522V42.4255H147.363V41.2402Z" fill="#002C72"></path></g><defs><clipPath id="clip0_122_9"><rect width="200" height="43.6953" fill="white" transform="translate(0 0.152344)"></rect></clipPath></defs></svg>